<?xml version="1.0" encoding="UTF-8"?>
<svg width="113px" height="113px" viewBox="0 0 113 113" version="1.1" xmlns="http://www.w3.org/2000/svg" xmlns:xlink="http://www.w3.org/1999/xlink">
    <title>electron</title>
    <g id="Symbols" stroke="none" stroke-width="1" fill="none" fill-rule="evenodd">
        <g id="Artboard" transform="translate(-55.000000, 0.000000)" fill-rule="nonzero">
            <g id="electron" transform="translate(55.000000, 0.000000)">
                <circle id="Oval" fill="#DB3B83" cx="56.5" cy="56.5" r="56.5"></circle>
                <g id="Group" transform="translate(15.449219, 12.359375)" fill="#081228">
                    <path d="M28.9129922,19.2850391 C17.4342227,17.1945391 8.35802734,19.3825898 4.74070312,25.6479102 C2.04150391,30.3232852 2.81308203,36.5219531 6.61226562,43.1479023 C6.81647559,43.5225022 7.20738008,43.7572963 7.63400427,43.7616631 C8.06062846,43.7659093 8.45619298,43.539054 8.66792321,43.1686528 C8.87965343,42.7982516 8.87440729,42.3422832 8.65421094,41.9768516 C5.23242969,36.0081562 4.56634766,30.6587539 6.77955859,26.8251406 C9.78465234,21.6205195 17.880043,19.6686211 28.4910078,21.6010977 C29.125444,21.7067261 29.7272225,21.2836208 29.8425096,20.6508685 C29.9577966,20.0181161 29.5439137,19.409958 28.9129922,19.2850391 L28.9129922,19.2850391 Z M12.5814023,51.2018008 C17.2227891,56.30225 23.2528398,61.0866523 30.1299492,65.0566602 C46.7811172,74.6704883 64.5079922,77.2399141 73.2443047,71.2831367 C73.5999595,71.0495749 73.8019043,70.642275 73.7725122,70.2178017 C73.74312,69.7933285 73.4869657,69.4177491 73.102514,69.2354351 C72.7180624,69.0531211 72.2651515,69.0924488 71.9178789,69.3383008 C64.0988086,74.6696055 47.260043,72.2286289 31.3071797,63.0182461 C24.6357656,59.1665352 18.7964023,54.5335352 14.32275,49.6171523 C14.040159,49.3041787 13.6117552,49.1662531 13.1996469,49.2555668 C12.7875386,49.3448806 12.4546745,49.6477911 12.3270107,50.0496769 C12.1993469,50.4515626 12.2963837,50.8910363 12.5814023,51.2018008 L12.5814023,51.2018008 Z" id="Shape"></path>
                    <path d="M70.4572656,49.7698789 C77.9735313,40.8905508 80.5976914,31.9600195 76.9878711,25.7079414 C74.3319297,21.1071641 68.7168008,18.6781055 61.2539453,18.5809961 C60.6103937,18.5819425 60.0868704,19.0994967 60.0784441,19.7429952 C60.0702188,20.3864936 60.5801766,20.9174194 61.2234883,20.9350156 C67.9350703,21.0224141 72.7728828,23.1151211 74.949457,26.8851719 C77.9474883,32.0783164 75.6071523,40.042168 68.6603008,48.248793 C68.382909,48.5691188 68.2990715,49.0138076 68.4407842,49.4131475 C68.5824968,49.8124874 68.9278918,50.1048556 69.3451519,50.1786722 C69.7624119,50.2524888 70.187149,50.096363 70.4572656,49.7698789 Z M51.1408867,19.6770078 C44.3449961,21.133207 37.1112305,23.9802773 30.1643789,27.9908945 C12.9751367,37.9150312 1.76209375,52.5489727 3.319375,63.1599375 C3.37588083,63.5801487 3.65398763,63.9375119 4.04744707,64.0954994 C4.4409065,64.2534869 4.88892707,64.1876889 5.22034635,63.923243 C5.55176563,63.6587971 5.71537762,63.2365615 5.64867578,62.8178477 C4.26575,53.3964727 14.8948125,39.5252812 31.3416094,30.02975 C38.0805586,26.1387539 45.084793,23.3821719 51.6339375,21.9789414 C52.051094,21.8967171 52.3914976,21.5959401 52.5244628,21.1920829 C52.657428,20.7882257 52.5622905,20.344052 52.2755749,20.0300862 C51.9888593,19.7161203 51.5551244,19.581156 51.1408867,19.6770078 L51.1408867,19.6770078 Z" id="Shape"></path>
                    <path d="M23.2930078,70.5159727 C27.2232891,81.489332 33.6523711,88.2459375 40.8817227,88.2459375 C46.1543203,88.2459375 51.0323008,84.6515664 54.8363398,78.3240078 C55.0604099,77.9632716 55.0728283,77.5098158 54.8688377,77.1373566 C54.6648472,76.7648974 54.276069,76.5311712 53.8514418,76.5257171 C53.4268146,76.520263 53.0321616,76.7439265 52.8186719,77.1110234 C49.3999805,82.7976602 45.2008828,85.8914766 40.8817227,85.8914766 C34.8763906,85.8914766 29.142082,79.8653984 25.50975,69.7227656 C25.374334,69.3185184 25.0309434,69.0190726 24.6120287,68.9399285 C24.193114,68.8607844 23.7641449,69.0143111 23.4905808,69.3412912 C23.2170166,69.6682712 23.1416111,70.1176028 23.2934492,70.5159727 L23.2930078,70.5159727 Z M59.1890469,68.3694141 C61.2239297,61.8683828 62.3164102,54.3688906 62.3164102,46.553793 C62.3164102,27.0529062 55.4909453,10.2423906 45.7694141,5.92587891 C45.1786946,5.6784598 44.4985561,5.94866107 44.2386709,6.53400317 C43.9787857,7.11934527 44.2345092,7.80505853 44.8142109,8.07729297 C53.4847539,11.9276797 59.9619492,27.8814258 59.9619492,46.553793 C59.9619492,54.1358281 58.9038984,61.3982852 56.9427305,67.6662539 C56.8101369,68.0696119 56.9050212,68.5131178 57.1910444,68.8269163 C57.4770676,69.1407147 57.9099071,69.276179 58.3237924,69.1814285 C58.7376777,69.0866781 59.0684727,68.7763955 59.1894883,68.3694141 L59.1890469,68.3694141 Z M81.3582344,67.2164609 C81.3582344,64.1049883 78.8360391,61.582793 75.7245664,61.582793 C72.6130937,61.582793 70.0908984,64.1049883 70.0908984,67.2164609 C70.0908984,70.3279336 72.6130937,72.8501289 75.7245664,72.8501289 C78.8360391,72.8501289 81.3582344,70.3279336 81.3582344,67.2164609 Z M79.0042148,67.2164609 C79.0042148,68.3881665 78.3791175,69.4708672 77.3643907,70.05672 C76.3496639,70.6425728 75.0994689,70.6425728 74.0847421,70.05672 C73.0700153,69.4708672 72.444918,68.3881665 72.444918,67.2164609 C72.444918,65.4051611 73.9132666,63.9368125 75.7245664,63.9368125 C77.5358662,63.9368125 79.0042148,65.4051611 79.0042148,67.2164609 L79.0042148,67.2164609 Z M5.95766016,72.8501289 C9.06957422,72.8501289 11.5917695,70.3279336 11.5917695,67.2164609 C11.5917695,64.1049883 9.06913281,61.582793 5.95766016,61.582793 C2.84662891,61.582793 0.323992188,64.1049883 0.323992188,67.2164609 C0.323992188,70.3279336 2.84662891,72.8501289 5.95766016,72.8501289 Z M5.95766016,70.4961094 C4.14636034,70.4961094 2.67801172,69.0277608 2.67801172,67.2164609 C2.67801172,65.4051611 4.14636034,63.9368125 5.95766016,63.9368125 C7.76895997,63.9368125 9.23730859,65.4051611 9.23730859,67.2164609 C9.23730859,69.0277608 7.76895997,70.4961094 5.95766016,70.4961094 L5.95766016,70.4961094 Z" id="Shape"></path>
                    <path d="M40.8817227,11.6725469 C43.9931953,11.6725469 46.5153906,9.15035156 46.5153906,6.03887891 C46.5153906,2.92740625 43.9931953,0.405210938 40.8817227,0.405210938 C37.77025,0.405210938 35.2480547,2.92740625 35.2480547,6.03887891 C35.2480547,9.15035156 37.77025,11.6725469 40.8817227,11.6725469 L40.8817227,11.6725469 Z M40.8817227,9.31852734 C39.0704228,9.31852734 37.6020742,7.85017872 37.6020742,6.03887891 C37.6020742,4.22757909 39.0704228,2.75923047 40.8817227,2.75923047 C42.6930225,2.75923047 44.1613711,4.22757909 44.1613711,6.03887891 C44.1613711,7.85017872 42.6930225,9.31852734 40.8817227,9.31852734 L40.8817227,9.31852734 Z M41.7420234,50.5379258 C39.5416133,51.0133203 37.3738672,49.6149453 36.8975898,47.4145352 C36.422672,45.2142425 37.820869,43.0454168 40.0209805,42.5696602 C42.2213906,42.0942656 44.3891367,43.4926406 44.8658555,45.6930508 C45.34125,47.8934609 43.942875,50.0616484 41.7420234,50.5379258 L41.7420234,50.5379258 Z" id="Shape"></path>
                </g>
            </g>
        </g>
    </g>
</svg>