<?xml version="1.0" encoding="UTF-8"?>
<svg width="64px" height="58px" viewBox="0 0 64 58" version="1.1" xmlns="http://www.w3.org/2000/svg" xmlns:xlink="http://www.w3.org/1999/xlink">
    <title>expoio-icon</title>
    <g id="Symbols" stroke="none" stroke-width="1" fill="none" fill-rule="evenodd">
        <g id="Artboard" transform="translate(-97.000000, -25.000000)" fill="#DB3B83" fill-rule="nonzero">
            <g id="expoio-icon" transform="translate(97.000000, 25.000000)">
                <path d="M39.758002,4.7300533 C37.401141,1.1386445 36.839984,0.6616604 32.042088,0.6616604 C32.014038,0.6616604 32.014038,0.6616604 31.985968,0.6616604 C31.957898,0.6616604 31.957898,0.6616604 31.929848,0.6616604 C27.131952,0.6616604 26.598853,1.1386445 24.213933,4.7300533 C21.997369,8.096996 1.50000002e-07,48.388098 1.50000002e-07,49.510411 C1.50000002e-07,51.137769 0.42086825,52.680949 1.9359932,54.869464 C3.4791761,57.086036 6.1446739,58.320581 8.0806679,56.356532 C9.3993859,55.037811 23.512495,30.711639 30.330558,21.508657 C31.144235,20.358286 32.827708,20.358286 33.669443,21.508657 C40.487506,30.711639 54.600615,55.037811 55.919334,56.356532 C57.855328,58.320581 60.520825,57.086036 62.06401,54.869464 C63.579133,52.680949 64.0000002,51.137769 64.0000002,49.510411 C63.971943,48.388098 41.974574,8.068938 39.758002,4.7300533 Z" id="Path"></path>
            </g>
        </g>
    </g>
</svg>