<?xml version="1.0" encoding="UTF-8"?>
<svg width="87px" height="87px" viewBox="0 0 87 87" version="1.1" xmlns="http://www.w3.org/2000/svg" xmlns:xlink="http://www.w3.org/1999/xlink">
    <title>fastify</title>
    <g id="Symbols" stroke="none" stroke-width="1" fill="none" fill-rule="evenodd">
        <g id="Artboard" transform="translate(-49.000000, -13.000000)" fill-rule="nonzero">
            <g id="fastify" transform="translate(49.000000, 13.000000)">
                <rect id="Rectangle" fill="#DB3B83" x="0" y="0" width="87" height="87" rx="5"></rect>
                <path d="M76.7983272,27.3971946 L79,21.677739 L78.9092944,21.3223393 L57.1152079,27.0748553 C59.4405701,23.7026907 58.6407115,21 58.6407115,21 C58.6407115,21 51.6811167,25.4548939 46.4119449,25.3391824 C41.151019,25.2234708 39.4523501,23.8184023 31.37955,26.3971164 C23.3067499,28.9758304 21.0226175,36.8938051 18.6890093,38.5964176 C16.3471551,40.2990301 9,45.8366533 9,45.8366533 L9.01649193,45.9358347 L15.6380021,43.8199667 C15.6380021,43.8199667 13.8238897,45.5308443 9.96477795,50.7461283 C9.96477795,50.7461283 9.89881022,50.6882725 9.78336671,50.5808261 L9.79161268,50.6138865 C9.79161268,50.6138865 12.8920957,55.3663243 15.9348569,54.4819576 C16.2399576,54.3910414 16.5862881,54.2505346 16.9656025,54.052172 C18.1860054,54.738176 19.7857227,55.4076499 21.5503593,55.5894823 C21.5503593,55.5894823 20.3546943,54.2009439 19.3569325,52.6140429 C19.6290494,52.4404757 19.9011662,52.2586432 20.181529,52.0768108 L20.0578396,52.1759922 L22.581105,53.1016844 L22.3007421,50.729598 C22.3089881,50.7213329 22.3172341,50.7213329 22.32548,50.7130678 L24.7992696,51.6222298 L24.4941689,49.4650363 C24.8075156,49.2997341 25.1208623,49.1426971 25.434209,49.0021902 L28.0151961,39.2163008 L38.6937213,31.9099442 L37.8443869,34.0506075 C35.6839439,39.3898681 31.618683,40.6461647 31.618683,40.6461647 L29.9200141,41.2908432 C28.6583814,42.786828 28.1306397,43.1504928 27.6936035,48.1674142 C28.7078572,47.9111958 29.6808811,47.85334 30.5631994,48.0847631 C35.1232183,49.3162643 36.7064436,54.8290922 35.4777948,56.3498723 C35.1726941,56.7300674 34.4388032,57.383011 33.515255,58.1516662 L31.6681588,58.1516662 L31.6434209,59.655916 C31.5774532,59.7055067 31.5197314,59.7550974 31.4537637,59.804688 L29.5736836,59.804688 L29.5489457,61.2758775 C29.3840264,61.3998541 29.2191071,61.5238307 29.0541878,61.6478074 C27.2813052,61.6808678 25.0466486,60.1352924 25.0466486,60.1352924 C25.0466486,61.540361 26.2175757,63.7140847 26.2175757,63.7140847 C26.2175757,63.7140847 26.2917894,63.6810243 26.4237248,63.6149034 C26.3082813,63.6975545 26.2423136,63.7471451 26.2423136,63.7471451 C26.2423136,63.7471451 30.9837437,66.912682 33.9605372,65.7390365 C36.615738,64.6976327 43.4763812,59.2674559 49.4052303,56.6970069 L67.340205,51.9610993 L69.706797,45.8201231 L56.0349865,49.4319759 L56.0349865,43.9108829 L72.0733891,39.6791469 L74.4399812,33.5381708 L56.0349865,38.398055 L56.0349865,32.876962 L76.7983272,27.3971946 Z M44.243256,39.0923242 L48.4981741,37.9682693 L48.5558959,38.1831622 L47.2282954,41.6297127 L42.816704,42.7950931 L44.243256,39.0923242 Z M45.7110378,46.4730668 L41.2994463,47.6384472 L42.7259984,43.9356782 L46.9809165,42.8116234 L47.0386382,43.0265162 L45.7110378,46.4730668 Z M51.4584757,45.2333004 L47.0468842,46.3986808 L48.4734362,42.6959118 L52.7283543,41.571857 L52.7860761,41.7867498 L51.4584757,45.2333004 Z" id="Shape" fill="#081228"></path>
            </g>
        </g>
    </g>
</svg>