<?xml version="1.0" encoding="UTF-8"?>
<svg width="63px" height="63px" viewBox="0 0 63 63" version="1.1" xmlns="http://www.w3.org/2000/svg" xmlns:xlink="http://www.w3.org/1999/xlink">
    <title>javascript</title>
    <g id="Symbols" stroke="none" stroke-width="1" fill="none" fill-rule="evenodd">
        <g id="Artboard" transform="translate(-70.000000, -43.000000)" fill-rule="nonzero">
            <g id="javascript" transform="translate(70.000000, 43.000000)">
                <rect id="Rectangle" fill="#DB3B83" x="0" y="0" width="63" height="63" rx="5"></rect>
                <path d="M42.0301067,49.2947861 C43.3138081,51.3331185 44.9839351,52.8313715 47.9377634,52.8313715 C50.4191816,52.8313715 52.0043354,51.6252926 52.0043354,49.9588181 C52.0043354,47.9618033 50.3756834,47.2544862 47.6444038,46.0926761 L46.1472579,45.4679942 C41.8257665,43.6775671 38.9548881,41.4346145 38.9548881,36.692934 C38.9548881,32.3250789 42.3770804,29 47.7253306,29 C51.5329367,29 54.2702859,30.288714 56.2428768,33.6629804 L51.5794696,36.5748838 C50.5527108,34.7844567 49.4450252,34.0791072 47.7253306,34.0791072 C45.9712421,34.0791072 44.8595101,35.1612334 44.8595101,36.5748838 C44.8595101,38.3220258 45.9722537,39.0293429 48.5416797,40.1114692 L50.0388256,40.7351674 C55.1270984,42.8571186 58,45.0203874 58,49.8840531 C58,55.1274467 53.7644934,58 48.0763506,58 C42.5146559,58 38.9215058,55.422572 37.163371,52.0443706 L42.0301067,49.2947861 Z M20.8748284,49.7994505 C21.8156025,51.4226398 22.6714035,52.7949727 24.7289675,52.7949727 C26.6965004,52.7949727 27.9377153,52.0463381 27.9377153,49.1354184 L27.9377153,29.3325079 L33.9262988,29.3325079 L33.9262988,49.2141185 C33.9262988,55.244513 30.2906621,57.9891787 24.9838869,57.9891787 C20.1889737,57.9891787 17.4121727,55.5760372 16,52.6695444 L20.8748284,49.7994505 Z" id="Shape" fill="#081228"></path>
            </g>
        </g>
    </g>
</svg>